<svg width="354" height="211" viewBox="0 0 354 211" fill="none" xmlns="http://www.w3.org/2000/svg">
<path d="M40 42C40 40.8954 40.8954 40 42 40H312C313.105 40 314 40.8954 314 42V169C314 170.105 313.105 171 312 171H42C40.8954 171 40 170.105 40 169V42Z" fill="white"/>
<path d="M42 41H312V39H42V41ZM313 42V169H315V42H313ZM312 170H42V172H312V170ZM41 169V42H39V169H41ZM42 170C41.4477 170 41 169.552 41 169H39C39 170.657 40.3431 172 42 172V170ZM313 169C313 169.552 312.552 170 312 170V172C313.657 172 315 170.657 315 169H313ZM312 41C312.552 41 313 41.4477 313 42H315C315 40.3432 313.657 39 312 39V41ZM42 39C40.3431 39 39 40.3431 39 42H41C41 41.4477 41.4477 41 42 41V39Z" fill="white" fill-opacity="0.1"/>
<g clip-path="url(#clip0_0_1)">
<path d="M59 80H75C75.55 80 76 79.55 76 79C76 78.45 75.55 78 75 78H59C58.45 78 58 78.45 58 79C58 79.55 58.45 80 59 80ZM59 84H75C75.55 84 76 83.55 76 83C76 82.45 75.55 82 75 82H59C58.45 82 58 82.45 58 83C58 83.55 58.45 84 59 84ZM59 76H75C75.55 76 76 75.55 76 75C76 74.45 75.55 74 75 74H59C58.45 74 58 74.45 58 75C58 75.55 58.45 76 59 76ZM58 71C58 71.55 58.45 72 59 72H75C75.55 72 76 71.55 76 71C76 70.45 75.55 70 75 70H59C58.45 70 58 70.45 58 71Z" fill="#333333"/>
</g>
<g clip-path="url(#clip1_0_1)">
<path d="M103 82.46V85.5C103 85.78 103.22 86 103.5 86H106.54C106.67 86 106.8 85.95 106.89 85.85L117.81 74.94L114.06 71.19L103.15 82.1C103.05 82.2 103 82.32 103 82.46ZM120.71 72.04C121.1 71.65 121.1 71.02 120.71 70.63L118.37 68.29C117.98 67.9 117.35 67.9 116.96 68.29L115.13 70.12L118.88 73.87L120.71 72.04Z" fill="#333333"/>
</g>
<g clip-path="url(#clip2_0_1)">
<path d="M149 69H165V81H150.17L149 82.17V69ZM149 67C147.9 67 147.01 67.9 147.01 69L147 87L151 83H165C166.1 83 167 82.1 167 81V69C167 67.9 166.1 67 165 67H149ZM151 77H159V79H151V77ZM151 74H163V76H151V74ZM151 71H163V73H151V71Z" fill="#333333"/>
</g>
<g clip-path="url(#clip3_0_1)">
<path d="M202 73C203.1 73 204 72.1 204 71C204 69.9 203.1 69 202 69C200.9 69 200 69.9 200 71C200 72.1 200.9 73 202 73ZM202 75C200.9 75 200 75.9 200 77C200 78.1 200.9 79 202 79C203.1 79 204 78.1 204 77C204 75.9 203.1 75 202 75ZM202 81C200.9 81 200 81.9 200 83C200 84.1 200.9 85 202 85C203.1 85 204 84.1 204 83C204 81.9 203.1 81 202 81Z" fill="#333333"/>
</g>
<g clip-path="url(#clip4_0_1)">
<path d="M248 85H234V71H243V69H234C232.9 69 232 69.9 232 71V85C232 86.1 232.9 87 234 87H248C249.1 87 250 86.1 250 85V76H248V85ZM240.21 81.83L238.25 79.47L235.5 83H246.5L242.96 78.29L240.21 81.83ZM250 69V66H248V69H245C245.01 69.01 245 71 245 71H248V73.99C248.01 74 250 73.99 250 73.99V71H253V69H250Z" fill="#323232"/>
</g>
<g clip-path="url(#clip5_0_1)">
<path d="M290 71H282L280 69H274C272.9 69 272.01 69.9 272.01 71L272 83C272 84.1 272.9 85 274 85H290C291.1 85 292 84.1 292 83V73C292 71.9 291.1 71 290 71ZM290 83H274V73H290V83Z" fill="#323232"/>
</g>
<g clip-path="url(#clip6_0_1)">
<path d="M69.12 116.47L67 118.59L64.87 116.47L63.46 117.88L65.59 120L63.47 122.12L64.88 123.53L67 121.41L69.12 123.53L70.53 122.12L68.41 120L70.53 117.88L69.12 116.47ZM70.5 110L69.5 109H64.5L63.5 110H60V112H74V110H70.5ZM61 125C61 126.1 61.9 127 63 127H71C72.1 127 73 126.1 73 125V113H61V125ZM63 115H71V125H63V115Z" fill="#323232"/>
</g>
<g clip-path="url(#clip7_0_1)">
<path d="M109 128.2L104.8 124L103.4 125.4L109 131L121 119L119.6 117.6L109 128.2Z" fill="#323232"/>
</g>
<path d="M150 127H152V129H150V127ZM150 119H152V125H150V119ZM150.99 114C145.47 114 141 118.48 141 124C141 129.52 145.47 134 150.99 134C156.52 134 161 129.52 161 124C161 118.48 156.52 114 150.99 114ZM151 132C146.58 132 143 128.42 143 124C143 119.58 146.58 116 151 116C155.42 116 159 119.58 159 124C159 128.42 155.42 132 151 132Z" fill="#323232"/>
<g clip-path="url(#clip8_0_1)">
<path d="M209.43 124.98C209.47 124.66 209.5 124.34 209.5 124C209.5 123.66 209.47 123.34 209.43 123.02L211.54 121.37C211.73 121.22 211.78 120.95 211.66 120.73L209.66 117.27C209.57 117.11 209.4 117.02 209.22 117.02C209.16 117.02 209.1 117.03 209.05 117.05L206.56 118.05C206.04 117.65 205.48 117.32 204.87 117.07L204.49 114.42C204.46 114.18 204.25 114 204 114H200C199.75 114 199.54 114.18 199.51 114.42L199.13 117.07C198.52 117.32 197.96 117.66 197.44 118.05L194.95 117.05C194.89 117.03 194.83 117.02 194.77 117.02C194.6 117.02 194.43 117.11 194.34 117.27L192.34 120.73C192.21 120.95 192.27 121.22 192.46 121.37L194.57 123.02C194.53 123.34 194.5 123.67 194.5 124C194.5 124.33 194.53 124.66 194.57 124.98L192.46 126.63C192.27 126.78 192.22 127.05 192.34 127.27L194.34 130.73C194.43 130.89 194.6 130.98 194.78 130.98C194.84 130.98 194.9 130.97 194.95 130.95L197.44 129.95C197.96 130.35 198.52 130.68 199.13 130.93L199.51 133.58C199.54 133.82 199.75 134 200 134H204C204.25 134 204.46 133.82 204.49 133.58L204.87 130.93C205.48 130.68 206.04 130.34 206.56 129.95L209.05 130.95C209.11 130.97 209.17 130.98 209.23 130.98C209.4 130.98 209.57 130.89 209.66 130.73L211.66 127.27C211.78 127.05 211.73 126.78 211.54 126.63L209.43 124.98ZM207.45 123.27C207.49 123.58 207.5 123.79 207.5 124C207.5 124.21 207.48 124.43 207.45 124.73L207.31 125.86L208.2 126.56L209.28 127.4L208.58 128.61L207.31 128.1L206.27 127.68L205.37 128.36C204.94 128.68 204.53 128.92 204.12 129.09L203.06 129.52L202.9 130.65L202.7 132H201.3L201.11 130.65L200.95 129.52L199.89 129.09C199.46 128.91 199.06 128.68 198.66 128.38L197.75 127.68L196.69 128.11L195.42 128.62L194.72 127.41L195.8 126.57L196.69 125.87L196.55 124.74C196.52 124.43 196.5 124.2 196.5 124C196.5 123.8 196.52 123.57 196.55 123.27L196.69 122.14L195.8 121.44L194.72 120.6L195.42 119.39L196.69 119.9L197.73 120.32L198.63 119.64C199.06 119.32 199.47 119.08 199.88 118.91L200.94 118.48L201.1 117.35L201.3 116H202.69L202.88 117.35L203.04 118.48L204.1 118.91C204.53 119.09 204.93 119.32 205.33 119.62L206.24 120.32L207.3 119.89L208.57 119.38L209.27 120.59L208.2 121.44L207.31 122.14L207.45 123.27ZM202 120C199.79 120 198 121.79 198 124C198 126.21 199.79 128 202 128C204.21 128 206 126.21 206 124C206 121.79 204.21 120 202 120ZM202 126C200.9 126 200 125.1 200 124C200 122.9 200.9 122 202 122C203.1 122 204 122.9 204 124C204 125.1 203.1 126 202 126Z" fill="#323232"/>
</g>
<g clip-path="url(#clip9_0_1)">
<path d="M254 118.41L252.59 117L247 122.59L241.41 117L240 118.41L245.59 124L240 129.59L241.41 131L247 125.41L252.59 131L254 129.59L248.41 124L254 118.41Z" fill="#323232"/>
</g>
<g clip-path="url(#clip10_0_1)">
<path d="M289.61 117.41L288.2 116L282.2 122L288.2 128L289.61 126.59L285.03 122L289.61 117.41Z" fill="#323232"/>
</g>
<rect x="43" y="43" width="33.75" height="30" rx="3" fill="white"/>
<rect x="43.5" y="43.5" width="32.75" height="29" rx="2.5" stroke="white" stroke-opacity="0.0980392"/>
<path d="M49.8438 61V55H50.7656V61H49.8438ZM50.3125 54C50.1328 54 49.9779 53.9388 49.8477 53.8164C49.7201 53.694 49.6563 53.5469 49.6563 53.375C49.6563 53.2031 49.7201 53.056 49.8477 52.9336C49.9779 52.8112 50.1328 52.75 50.3125 52.75C50.4922 52.75 50.6458 52.8112 50.7734 52.9336C50.9036 53.056 50.9688 53.2031 50.9688 53.375C50.9688 53.5469 50.9036 53.694 50.7734 53.8164C50.6458 53.9388 50.4922 54 50.3125 54ZM54.8916 61.125C54.3291 61.125 53.8447 60.9922 53.4385 60.7266C53.0322 60.4609 52.7197 60.0951 52.501 59.6289C52.2822 59.1628 52.1729 58.6302 52.1729 58.0312C52.1729 57.4219 52.2848 56.8841 52.5088 56.418C52.7354 55.9492 53.0505 55.5833 53.4541 55.3203C53.8604 55.0547 54.3343 54.9219 54.876 54.9219C55.2979 54.9219 55.6781 55 56.0166 55.1562C56.3551 55.3125 56.6325 55.5312 56.8486 55.8125C57.0648 56.0937 57.1989 56.4219 57.251 56.7969H56.3291C56.2588 56.5234 56.1025 56.2812 55.8604 56.0703C55.6208 55.8568 55.2979 55.75 54.8916 55.75C54.5322 55.75 54.2171 55.8437 53.9463 56.0312C53.6781 56.2161 53.4684 56.4779 53.3174 56.8164C53.1689 57.1523 53.0947 57.5469 53.0947 58C53.0947 58.4635 53.1676 58.8672 53.3135 59.2109C53.4619 59.5547 53.6702 59.8216 53.9385 60.0117C54.2093 60.2018 54.527 60.2969 54.8916 60.2969C55.1312 60.2969 55.3486 60.2552 55.5439 60.1719C55.7393 60.0885 55.9046 59.9688 56.04 59.8125C56.1755 59.6562 56.2718 59.4687 56.3291 59.25H57.251C57.1989 59.6042 57.07 59.9232 56.8643 60.207C56.6611 60.4883 56.3916 60.7122 56.0557 60.8789C55.7223 61.043 55.3343 61.125 54.8916 61.125ZM61.0361 61.125C60.4945 61.125 60.0192 60.9961 59.6104 60.7383C59.2041 60.4805 58.8864 60.1198 58.6572 59.6562C58.4307 59.1927 58.3174 58.651 58.3174 58.0312C58.3174 57.4062 58.4307 56.8607 58.6572 56.3945C58.8864 55.9284 59.2041 55.5664 59.6104 55.3086C60.0192 55.0508 60.4945 54.9219 61.0361 54.9219C61.5778 54.9219 62.0518 55.0508 62.458 55.3086C62.8669 55.5664 63.1846 55.9284 63.4111 56.3945C63.6403 56.8607 63.7549 57.4062 63.7549 58.0312C63.7549 58.651 63.6403 59.1927 63.4111 59.6562C63.1846 60.1198 62.8669 60.4805 62.458 60.7383C62.0518 60.9961 61.5778 61.125 61.0361 61.125ZM61.0361 60.2969C61.4476 60.2969 61.7861 60.1914 62.0518 59.9805C62.3174 59.7695 62.514 59.4922 62.6416 59.1484C62.7692 58.8047 62.833 58.4323 62.833 58.0312C62.833 57.6302 62.7692 57.2565 62.6416 56.9102C62.514 56.5638 62.3174 56.2839 62.0518 56.0703C61.7861 55.8568 61.4476 55.75 61.0361 55.75C60.6247 55.75 60.2861 55.8568 60.0205 56.0703C59.7549 56.2839 59.5583 56.5638 59.4307 56.9102C59.3031 57.2565 59.2393 57.6302 59.2393 58.0312C59.2393 58.4323 59.3031 58.8047 59.4307 59.1484C59.5583 59.4922 59.7549 59.7695 60.0205 59.9805C60.2861 60.1914 60.6247 60.2969 61.0361 60.2969ZM66.084 57.3906V61H65.1621V55H66.0527V55.9375H66.1309C66.2715 55.6328 66.485 55.388 66.7715 55.2031C67.0579 55.0156 67.4277 54.9219 67.8809 54.9219C68.2871 54.9219 68.6426 55.0052 68.9473 55.1719C69.252 55.3359 69.4889 55.5859 69.6582 55.9219C69.8275 56.2552 69.9121 56.6771 69.9121 57.1875V61H68.9902V57.25C68.9902 56.7786 68.8678 56.4115 68.623 56.1484C68.3783 55.8828 68.0423 55.75 67.6152 55.75C67.321 55.75 67.0579 55.8138 66.8262 55.9414C66.597 56.069 66.416 56.2552 66.2832 56.5C66.1504 56.7448 66.084 57.0417 66.084 57.3906Z" fill="black"/>
<defs>
<clipPath id="clip0_0_1">
<rect width="24" height="24" fill="white" transform="translate(55 65)"/>
</clipPath>
<clipPath id="clip1_0_1">
<rect width="24" height="24" fill="white" transform="translate(100 65)"/>
</clipPath>
<clipPath id="clip2_0_1">
<rect width="24" height="24" fill="white" transform="translate(145 65)"/>
</clipPath>
<clipPath id="clip3_0_1">
<rect width="24" height="24" fill="white" transform="translate(190 65)"/>
</clipPath>
<clipPath id="clip4_0_1">
<rect width="24" height="24" fill="white" transform="translate(230 65)"/>
</clipPath>
<clipPath id="clip5_0_1">
<rect width="24" height="24" fill="white" transform="translate(270 65)"/>
</clipPath>
<clipPath id="clip6_0_1">
<rect width="24" height="24" fill="white" transform="translate(55 106)"/>
</clipPath>
<clipPath id="clip7_0_1">
<rect width="24" height="24" fill="white" transform="translate(100 112)"/>
</clipPath>
<clipPath id="clip8_0_1">
<rect width="24" height="24" fill="white" transform="translate(190 112)"/>
</clipPath>
<clipPath id="clip9_0_1">
<rect width="24" height="24" fill="white" transform="translate(235 112)"/>
</clipPath>
<clipPath id="clip10_0_1">
<rect width="24" height="24" fill="white" transform="translate(274 110)"/>
</clipPath>
</defs>
</svg>
