<svg width="14" height="15" viewBox="0 0 14 15" fill="none" xmlns="http://www.w3.org/2000/svg">
<g id="settings" clip-path="url(#clip0_1567_510)">
<path id="Vector" d="M11.3343 8.07102C11.3577 7.88435 11.3752 7.69768 11.3752 7.49935C11.3752 7.30102 11.3577 7.11435 11.3343 6.92768L12.5652 5.96518C12.676 5.87768 12.7052 5.72018 12.6351 5.59185L11.4685 3.57352C11.416 3.48018 11.3168 3.42768 11.2118 3.42768C11.1768 3.42768 11.1418 3.43352 11.1126 3.44518L9.66015 4.02852C9.35682 3.79518 9.03015 3.60268 8.67432 3.45685L8.45265 1.91102C8.43515 1.77102 8.31265 1.66602 8.16682 1.66602H5.83348C5.68765 1.66602 5.56515 1.77102 5.54765 1.91102L5.32598 3.45685C4.97015 3.60268 4.64348 3.80102 4.34015 4.02852L2.88765 3.44518C2.85265 3.43352 2.81765 3.42768 2.78265 3.42768C2.68348 3.42768 2.58432 3.48018 2.53182 3.57352L1.36515 5.59185C1.28932 5.72018 1.32432 5.87768 1.43515 5.96518L2.66598 6.92768C2.64265 7.11435 2.62515 7.30685 2.62515 7.49935C2.62515 7.69185 2.64265 7.88435 2.66598 8.07102L1.43515 9.03352C1.32432 9.12102 1.29515 9.27852 1.36515 9.40685L2.53182 11.4252C2.58432 11.5185 2.68348 11.571 2.78848 11.571C2.82348 11.571 2.85848 11.5652 2.88765 11.5535L4.34015 10.9702C4.64348 11.2035 4.97015 11.396 5.32598 11.5418L5.54765 13.0877C5.56515 13.2277 5.68765 13.3327 5.83348 13.3327H8.16682C8.31265 13.3327 8.43515 13.2277 8.45265 13.0877L8.67432 11.5418C9.03015 11.396 9.35682 11.1977 9.66015 10.9702L11.1126 11.5535C11.1476 11.5652 11.1826 11.571 11.2177 11.571C11.3168 11.571 11.416 11.5185 11.4685 11.4252L12.6351 9.40685C12.7052 9.27852 12.676 9.12102 12.5652 9.03352L11.3343 8.07102ZM10.1793 7.07352C10.2027 7.25435 10.2085 7.37685 10.2085 7.49935C10.2085 7.62185 10.1968 7.75018 10.1793 7.92518L10.0977 8.58435L10.6168 8.99268L11.2468 9.48268L10.8385 10.1885L10.0977 9.89102L9.49098 9.64602L8.96598 10.0427C8.71515 10.2293 8.47598 10.3693 8.23682 10.4685L7.61848 10.7193L7.52515 11.3785L7.40848 12.166H6.59182L6.48098 11.3785L6.38765 10.7193L5.76932 10.4685C5.51848 10.3635 5.28515 10.2293 5.05182 10.0543L4.52098 9.64602L3.90265 9.89685L3.16182 10.1943L2.75348 9.48852L3.38348 8.99852L3.90265 8.59018L3.82098 7.93102C3.80348 7.75018 3.79182 7.61602 3.79182 7.49935C3.79182 7.38268 3.80348 7.24852 3.82098 7.07352L3.90265 6.41435L3.38348 6.00602L2.75348 5.51602L3.16182 4.81018L3.90265 5.10768L4.50932 5.35268L5.03432 4.95602C5.28515 4.76935 5.52432 4.62935 5.76348 4.53018L6.38182 4.27935L6.47515 3.62018L6.59182 2.83268H7.40265L7.51348 3.62018L7.60682 4.27935L8.22515 4.53018C8.47598 4.63518 8.70932 4.76935 8.94265 4.94435L9.47348 5.35268L10.0918 5.10185L10.8327 4.80435L11.241 5.51018L10.6168 6.00602L10.0977 6.41435L10.1793 7.07352ZM7.00015 5.16602C5.71098 5.16602 4.66682 6.21018 4.66682 7.49935C4.66682 8.78852 5.71098 9.83268 7.00015 9.83268C8.28932 9.83268 9.33348 8.78852 9.33348 7.49935C9.33348 6.21018 8.28932 5.16602 7.00015 5.16602ZM7.00015 8.66602C6.35848 8.66602 5.83348 8.14102 5.83348 7.49935C5.83348 6.85768 6.35848 6.33268 7.00015 6.33268C7.64182 6.33268 8.16682 6.85768 8.16682 7.49935C8.16682 8.14102 7.64182 8.66602 7.00015 8.66602Z" fill="#909090"/>
</g>
<defs>
<clipPath id="clip0_1567_510">
<rect width="14" height="14" fill="white" transform="translate(0 0.5)"/>
</clipPath>
</defs>
</svg>
