<svg width="15" height="15" viewBox="0 0 15 15" fill="none" xmlns="http://www.w3.org/2000/svg">
<g id="add_photo_alternate" clip-path="url(#clip0_1113_4949)">
<path id="Vector" d="M11.1425 11.7826H2.97587V3.61589H8.22587V2.44922H2.97587C2.3342 2.44922 1.8092 2.97422 1.8092 3.61589V11.7826C1.8092 12.4242 2.3342 12.9492 2.97587 12.9492H11.1425C11.7842 12.9492 12.3092 12.4242 12.3092 11.7826V6.53255H11.1425V11.7826ZM6.59837 9.93338L5.45504 8.55672L3.85087 10.6159H10.2675L8.20254 7.86839L6.59837 9.93338ZM12.3092 2.44922V0.699219H11.1425V2.44922H9.39254C9.39837 2.45505 9.39254 3.61589 9.39254 3.61589H11.1425V5.36005C11.1484 5.36589 12.3092 5.36005 12.3092 5.36005V3.61589H14.0592V2.44922H12.3092Z" fill="#909090"/>
</g>
<defs>
<clipPath id="clip0_1113_4949">
<rect width="14" height="14" fill="white" transform="translate(0.642578 0.115234)"/>
</clipPath>
</defs>
</svg>
