<svg width="284" height="77" viewBox="0 0 284 77" fill="current" xmlns="http://www.w3.org/2000/svg">
<path d="M227.343 76.0391C226.65 75.8257 225.877 75.4791 225.023 74.9991C224.17 74.5724 223.743 73.9324 223.743 73.0791C223.743 72.7591 223.823 72.4391 223.983 72.1191L224.143 71.7991C223.343 70.9457 222.677 70.0124 222.143 68.9991C221.61 68.0391 221.343 67.1324 221.343 66.2791C221.343 65.9057 221.37 65.6391 221.423 65.4791C222.863 63.3457 224.917 61.1324 227.583 58.8391C230.25 56.5457 233.343 54.3591 236.863 52.2791C240.437 50.1991 244.197 48.4391 248.143 46.9991C248.997 45.8791 249.77 44.7857 250.463 43.7191C251.157 42.6524 251.85 41.6124 252.543 40.5991C252.49 40.5991 252.597 40.4124 252.863 40.0391C253.13 39.6124 253.397 39.1857 253.663 38.7591C253.93 38.3324 254.037 38.1457 253.983 38.1991C253.93 38.1991 253.717 38.4657 253.343 38.9991C253.023 39.4791 252.677 39.9591 252.303 40.4391C251.983 40.9191 251.797 41.1857 251.743 41.2391C248.97 43.4791 245.957 45.5591 242.703 47.4791C239.503 49.3457 236.437 50.6791 233.503 51.4791C232.01 51.8524 230.517 52.1191 229.023 52.2791C227.53 52.4391 226.17 52.5191 224.943 52.5191C223.93 52.5191 223.103 52.4924 222.463 52.4391C221.823 52.3324 221.503 52.2524 221.503 52.1991C221.503 51.9857 222.677 51.8791 225.023 51.8791C221.503 51.1324 218.997 49.8524 217.503 48.0391C216.063 46.1724 215.343 44.0124 215.343 41.5591C215.343 39.5324 215.743 37.3991 216.543 35.1591C217.397 32.8657 218.49 30.6524 219.823 28.5191C222.65 23.9857 225.69 20.3591 228.943 17.6391C232.25 14.9191 235.903 12.4391 239.903 10.1991C238.89 10.6791 237.85 11.1857 236.783 11.7191C235.77 12.1991 234.81 12.7057 233.903 13.2391C233.53 13.4524 233.21 13.5591 232.943 13.5591C232.73 13.5591 232.81 13.4524 233.183 13.2391C234.943 12.2257 237.023 11.1591 239.423 10.0391C241.823 8.86573 243.93 7.8524 245.743 6.99906C250.33 4.8124 254.97 3.10573 259.663 1.87906C264.357 0.652396 268.463 0.0390625 271.983 0.0390625C274.063 0.0390625 275.823 0.279062 277.263 0.759062C277.903 1.7724 278.357 2.70573 278.623 3.55906C278.89 4.35906 279.023 5.07906 279.023 5.71906C279.023 6.2524 278.943 6.70573 278.783 7.07907C278.677 7.4524 278.57 7.7724 278.463 8.03906C278.73 7.87907 278.97 7.6124 279.183 7.23907C279.45 6.86573 279.663 6.4924 279.823 6.11907C279.983 5.74573 280.063 5.42573 280.063 5.15906C280.117 4.8924 280.197 4.62573 280.303 4.35906C280.41 4.19907 280.703 4.30573 281.183 4.67906C281.663 5.0524 282.117 5.5324 282.543 6.11907C283.023 6.70573 283.237 7.23906 283.183 7.71906C283.13 8.62573 282.677 9.71906 281.823 10.9991C281.023 12.2791 280.01 13.5324 278.783 14.7591C277.61 15.9324 276.41 16.9191 275.183 17.7191C273.957 18.4657 272.89 18.7857 271.983 18.6791C270.65 19.0524 269.45 19.3724 268.383 19.6391C267.37 19.8524 266.623 19.9591 266.143 19.9591C265.717 19.9591 265.503 19.8524 265.503 19.6391C265.503 19.3191 266.25 18.6257 267.743 17.5591C269.983 16.0657 271.903 14.5457 273.503 12.9991C275.477 11.0791 276.463 9.58573 276.463 8.51906C276.463 7.82573 276.143 7.31907 275.503 6.99906C274.917 6.67906 274.09 6.51906 273.023 6.51906C272.81 6.51906 272.543 6.54573 272.223 6.59906C271.957 6.59906 271.663 6.62573 271.343 6.67906C268.25 7.10573 264.917 7.79907 261.343 8.75907C257.823 9.71907 254.223 10.9991 250.543 12.5991C246.863 14.1457 243.317 16.0391 239.903 18.2791C236.543 20.4657 233.477 23.0257 230.703 25.9591C227.93 28.8391 225.663 32.1457 223.903 35.8791C223.21 37.3191 222.677 38.7057 222.303 40.0391C221.93 41.3724 221.743 42.5724 221.743 43.6391C221.743 45.1324 222.143 46.3324 222.943 47.2391C223.797 48.0924 225.157 48.5191 227.023 48.5191C228.463 48.5191 230.223 48.2524 232.303 47.7191C234.437 47.1324 236.943 46.1724 239.823 44.8391C241.957 43.8791 244.117 42.5724 246.303 40.9191C248.49 39.2657 250.543 37.5324 252.463 35.7191C254.383 33.9057 256.037 32.2524 257.423 30.7591C258.863 29.2124 259.85 28.0924 260.383 27.3991C260.97 27.2391 261.743 27.3457 262.703 27.7191C263.717 28.0924 264.597 28.5457 265.343 29.0791C266.143 29.6124 266.463 30.0391 266.303 30.3591C266.303 30.3591 265.877 31.0791 265.023 32.5191C264.223 33.9591 263.05 35.9057 261.503 38.3591C260.01 40.7591 258.223 43.3991 256.143 46.2791L258.223 46.1191H258.463C259.21 46.1191 259.583 46.3591 259.583 46.8391C259.583 47.2657 259.237 47.5591 258.543 47.7191C257.903 47.9324 257.183 48.1991 256.383 48.5191C255.583 48.7857 254.783 49.0524 253.983 49.3191L253.103 50.3591L253.503 49.7991L253.583 49.6391L248.063 55.9591C247.263 56.8657 246.25 57.9591 245.023 59.2391C243.797 60.5191 242.49 61.8257 241.103 63.1591C239.77 64.4924 238.517 65.7191 237.343 66.8391C236.17 67.9591 235.237 68.8657 234.543 69.5591C233.85 70.2524 233.557 70.5724 233.663 70.5191C236.49 68.3857 239.21 65.9857 241.823 63.3191C244.437 60.7057 247.023 57.7991 249.583 54.5991C249.957 54.0657 250.41 53.5057 250.943 52.9191C251.477 52.3324 251.983 51.7457 252.463 51.1591C251.877 52.0124 251.13 53.0524 250.223 54.2791C249.317 55.5057 248.25 56.8657 247.023 58.3591C246.277 59.2657 245.263 60.3324 243.983 61.5591C242.703 62.7857 241.343 64.0124 239.903 65.2391C238.517 66.5191 237.237 67.6391 236.063 68.5991C234.943 69.5591 234.143 70.1991 233.663 70.5191C234.037 70.5191 234.33 70.5991 234.543 70.7591C234.757 70.8657 234.57 71.2124 233.983 71.7991C233.397 72.3857 232.623 73.0257 231.663 73.7191C230.757 74.4124 229.877 74.9991 229.023 75.4791C228.223 75.9591 227.663 76.1457 227.343 76.0391ZM240.783 10.0391C244.25 8.43907 247.93 6.99906 251.823 5.71906C255.77 4.43907 259.557 3.4524 263.183 2.75907C266.81 2.0124 269.877 1.63907 272.383 1.63907C273.13 1.63907 273.503 1.58573 273.503 1.47906C273.503 1.3724 273.317 1.2924 272.943 1.23907C272.623 1.1324 272.277 1.10573 271.903 1.15907C270.357 1.26573 268.25 1.50573 265.583 1.87906C262.97 2.19906 260.09 2.7324 256.943 3.47907C253.797 4.22573 250.65 5.2924 247.503 6.67906C246.49 7.15906 245.37 7.6924 244.143 8.27907C242.917 8.86573 241.797 9.4524 240.783 10.0391ZM227.423 72.5191C228.863 71.0791 230.543 69.2924 232.463 67.1591C234.383 65.0791 236.33 62.9191 238.303 60.6791C240.277 58.4391 242.037 56.4391 243.583 54.6791C244.277 53.9324 244.97 53.1591 245.663 52.3591C246.41 51.5591 247.05 50.7324 247.583 49.8791C246.623 51.0524 245.983 51.7724 245.663 52.0391C245.343 52.2524 245.157 52.3591 245.103 52.3591C244.197 52.7324 242.97 53.4257 241.423 54.4391C239.93 55.4524 238.33 56.6524 236.623 58.0391C234.917 59.4791 233.317 60.9724 231.823 62.5191C230.33 64.1191 229.103 65.6391 228.143 67.0791C227.183 68.5191 226.703 69.7724 226.703 70.8391C226.703 71.4791 226.943 72.0391 227.423 72.5191Z" fill="black"/>
<path d="M186.893 55.5594C185.827 55.5594 184.92 55.266 184.173 54.6794C183.48 54.0927 182.68 53.3194 181.773 52.3594C180.547 52.466 179.507 52.1194 178.653 51.3194C177.853 50.5194 177.24 49.4527 176.813 48.1194C176.44 46.786 176.253 45.4527 176.253 44.1194C176.253 43.426 176.28 42.7594 176.333 42.1194C176.44 41.4794 176.6 40.8927 176.813 40.3594C182.573 24.5194 193.88 11.9327 210.733 2.59937C211.8 2.54604 212.947 2.83937 214.173 3.47938C215.4 4.06604 216.547 4.86604 217.613 5.87937C218.68 6.83937 219.48 7.93271 220.013 9.15937C220.227 8.51937 220.387 7.93271 220.493 7.39937C220.653 6.81271 220.76 6.25271 220.813 5.71937C220.92 4.86604 220.733 4.30604 220.253 4.03937C219.827 3.71937 219.427 3.50604 219.053 3.39938C218.68 3.23937 218.627 3.02604 218.893 2.75937C219.107 2.59937 219.347 2.49271 219.613 2.43937C219.933 2.38604 220.253 2.35938 220.573 2.35938C220.947 2.35938 221.293 2.38604 221.613 2.43937C221.987 2.43937 222.28 2.43937 222.493 2.43937C223.827 2.43937 225.027 2.86604 226.093 3.71937C227.213 4.51937 227.667 5.74604 227.453 7.39937C227.24 9.05271 226.653 10.9994 225.693 13.2394C224.733 15.426 223.533 17.7194 222.093 20.1194C220.653 22.466 219.133 24.8127 217.533 27.1594C215.933 29.506 214.387 31.666 212.893 33.6394C211.4 35.6127 210.12 37.2927 209.053 38.6794C209.8 37.9327 210.84 36.8127 212.173 35.3194C213.56 33.7727 214.813 32.226 215.933 30.6794C216.253 30.1994 216.76 29.426 217.453 28.3594C218.2 27.2394 218.947 26.0927 219.693 24.9194C220.493 23.746 221.16 22.7594 221.693 21.9594C222.227 21.106 222.467 20.7327 222.413 20.8394C221.24 23.3994 219.88 25.8794 218.333 28.2794C216.787 30.6794 215.24 32.8394 213.693 34.7594C212.2 36.6794 210.92 38.2527 209.853 39.4794C208.84 40.706 208.253 41.3994 208.093 41.5594C205.693 44.3327 203.16 46.786 200.493 48.9194C197.827 50.9994 195.293 52.626 192.893 53.7994C190.493 54.9727 188.493 55.5594 186.893 55.5594ZM185.053 52.5194H185.133C185.24 52.5194 185.4 52.4927 185.613 52.4394C185.827 52.386 186.093 52.2527 186.413 52.0394C187.373 51.506 188.653 50.6527 190.253 49.4794C191.907 48.306 193.507 47.0527 195.053 45.7194C196.92 44.1194 199 41.7994 201.293 38.7594C203.587 35.7194 206.173 32.1727 209.053 28.1194C206.493 31.6927 203.747 35.1327 200.813 38.4394C197.933 41.746 195.16 44.5994 192.493 46.9994C189.88 49.346 187.64 50.9727 185.773 51.8794C186.84 51.2394 188.333 50.1194 190.253 48.5194C192.173 46.9194 194.333 44.946 196.733 42.5994C199.133 40.1994 201.533 37.5327 203.933 34.5994C204.893 33.426 205.933 32.0394 207.053 30.4394C208.227 28.8394 209.4 27.2127 210.573 25.5594C211.8 23.906 212.92 22.386 213.933 20.9994L213.053 22.3594L216.093 18.1194L213.933 20.9994C215 19.2927 215.96 17.666 216.813 16.1194C217.72 14.5194 218.467 12.9994 219.053 11.5594C218.68 11.2394 218.253 10.8927 217.773 10.5194C217.293 10.146 216.813 9.79937 216.333 9.47937C215.8 9.15937 215.187 8.99938 214.493 8.99938C212.68 8.99938 210.253 10.0927 207.213 12.2794C205.24 13.7727 203.053 15.6127 200.653 17.7994C198.307 19.9327 195.933 22.4127 193.533 25.2394C191.187 28.066 189 31.2394 186.973 34.7594C184.947 38.2794 183.293 42.1727 182.013 46.4394C181.907 46.866 181.853 47.2394 181.853 47.5594C181.853 48.5727 182.147 49.586 182.733 50.5994C183.373 51.6127 184.12 52.1194 184.973 52.1194C185.133 52.1194 185.373 52.066 185.693 51.9594C185.267 52.226 185.053 52.4127 185.053 52.5194ZM209.053 28.1194C209.213 27.906 209.427 27.586 209.693 27.1594C210.013 26.6794 210.253 26.306 210.413 26.0394C210.627 25.7194 210.653 25.6927 210.493 25.9594L209.053 28.1194Z" fill="black"/>
<path d="M166.337 54.4386C166.124 54.4386 166.017 54.3319 166.017 54.1186C166.017 53.9053 166.177 53.5319 166.497 52.9986C166.924 52.1453 167.137 51.4786 167.137 50.9986C167.137 50.1986 166.684 49.6386 165.777 49.3186C164.871 48.9986 163.617 48.8386 162.017 48.8386C161.217 48.8386 160.311 48.8919 159.297 48.9986C158.337 49.0519 157.271 49.1319 156.097 49.2386C154.604 49.3986 152.897 49.6653 150.977 50.0386C149.057 50.4119 147.164 50.8386 145.297 51.3186C143.484 51.7453 141.937 52.1986 140.657 52.6786C141.297 52.5186 142.151 52.3053 143.217 52.0386C144.284 51.7719 145.351 51.5053 146.417 51.2386C147.537 50.9719 148.417 50.7853 149.057 50.6786C149.324 50.6253 149.537 50.5986 149.697 50.5986C149.911 50.5986 149.964 50.6253 149.857 50.6786C149.324 50.7853 148.444 50.9986 147.217 51.3186C145.991 51.6386 144.711 51.9853 143.377 52.3586C142.044 52.6786 140.871 52.9719 139.857 53.2386C138.897 53.5053 138.364 53.6653 138.257 53.7186C138.044 53.7719 137.857 53.7986 137.697 53.7986C137.537 53.8519 137.404 53.8786 137.297 53.8786C136.551 53.8786 135.991 53.5853 135.617 52.9986C135.297 52.4653 135.004 52.0386 134.737 51.7186C134.417 51.3986 134.311 50.9453 134.417 50.3586C134.204 50.3586 134.044 50.3853 133.937 50.4386C133.937 50.2253 133.911 49.9853 133.857 49.7186C133.857 49.4519 133.857 49.2119 133.857 48.9986C133.857 48.5186 133.937 48.2253 134.097 48.1186C135.217 46.3586 136.417 44.6519 137.697 42.9986C138.977 41.3453 140.311 39.6119 141.697 37.7986C145.644 32.7319 149.857 27.3986 154.337 21.7986C158.871 16.1986 163.191 10.8119 167.297 5.63859C167.244 5.37193 167.164 5.05193 167.057 4.67859C166.951 4.25192 166.897 3.85193 166.897 3.47859C166.897 2.94526 167.031 2.49193 167.297 2.11859C167.564 1.74526 168.044 1.55859 168.737 1.55859C169.324 1.55859 169.937 1.66526 170.577 1.87859C171.217 2.14526 171.964 2.57193 172.817 3.15859C173.671 3.74526 174.417 4.35859 175.057 4.99859C175.751 5.63859 176.097 6.25193 176.097 6.83859C176.097 7.69192 175.351 8.89192 173.857 10.4386C172.417 11.9319 170.657 13.7719 168.577 15.9586C167.297 17.2919 165.831 18.9186 164.177 20.8386C162.524 22.7053 160.871 24.5986 159.217 26.5186C157.617 28.4386 156.204 30.1186 154.977 31.5586C153.804 32.9453 153.057 33.8253 152.737 34.1986C152.791 33.9853 153.111 33.5053 153.697 32.7586C154.337 31.9586 155.057 31.0786 155.857 30.1186C156.711 29.1053 157.457 28.2253 158.097 27.4786C158.364 27.2119 158.764 26.7319 159.297 26.0386C159.831 25.3453 160.391 24.5986 160.977 23.7986C161.564 22.9453 162.071 22.2253 162.497 21.6386C162.924 20.9986 163.137 20.6253 163.137 20.5186C163.137 20.5186 163.084 20.5453 162.977 20.5986C162.924 20.6519 162.791 20.8119 162.577 21.0786C162.311 21.3453 161.751 22.0119 160.897 23.0786C160.097 24.1453 159.164 25.3453 158.097 26.6786C157.084 28.0119 156.097 29.2919 155.137 30.5186C154.231 31.6919 153.511 32.5719 152.977 33.1586C150.791 35.5053 148.764 37.7719 146.897 39.9586C145.031 42.0919 143.484 44.0119 142.257 45.7186C142.311 45.7186 142.364 45.7186 142.417 45.7186C142.471 45.6653 142.524 45.6386 142.577 45.6386C143.057 45.4253 143.937 45.1853 145.217 44.9186C146.497 44.6519 147.991 44.3853 149.697 44.1186C151.404 43.8519 153.111 43.6119 154.817 43.3986C156.524 43.1853 158.044 43.0253 159.377 42.9186C160.764 42.7586 161.751 42.6786 162.337 42.6786C163.137 42.6786 164.071 42.7586 165.137 42.9186C166.204 43.0253 167.217 43.2119 168.177 43.4786C169.191 43.6919 169.911 44.0119 170.337 44.4386C169.377 44.0119 168.337 43.6919 167.217 43.4786C166.151 43.2653 165.004 43.1319 163.777 43.0786C165.644 43.2386 167.431 43.6386 169.137 44.2786C170.257 44.6519 171.031 45.1319 171.457 45.7186C171.937 46.3053 172.177 46.9186 172.177 47.5586C172.177 48.4119 171.857 49.3186 171.217 50.2786C170.631 51.1853 169.911 52.0386 169.057 52.8386C168.844 53.0519 168.417 53.3719 167.777 53.7986C167.137 54.2253 166.657 54.4386 166.337 54.4386ZM143.377 45.4786C144.177 45.3186 145.217 45.1586 146.497 44.9986C147.777 44.7853 149.057 44.5719 150.337 44.3586C151.671 44.1453 152.737 43.9586 153.537 43.7986C154.764 43.5319 156.284 43.3186 158.097 43.1586C159.911 42.9986 161.751 42.9719 163.617 43.0786C163.297 43.0253 162.977 42.9986 162.657 42.9986C162.337 42.9986 161.991 42.9986 161.617 42.9986C159.697 42.9986 157.404 43.1586 154.737 43.4786C154.204 43.5319 153.244 43.6919 151.857 43.9586C150.471 44.1719 148.977 44.4119 147.377 44.6786C145.831 44.9453 144.497 45.2119 143.377 45.4786Z" fill="black"/>
<path d="M104.008 4.51813C105.928 4.09146 107.901 3.77146 109.928 3.55812C112.008 3.29146 114.115 3.13146 116.248 3.07812C114.061 3.13146 111.901 3.29146 109.768 3.55812C107.688 3.82479 105.768 4.14479 104.008 4.51813ZM131.128 4.43812C129.261 4.06479 127.368 3.77146 125.448 3.55812C123.581 3.29146 121.741 3.13146 119.928 3.07812C121.901 3.13146 123.821 3.26479 125.688 3.47813C127.608 3.69146 129.421 4.01146 131.128 4.43812ZM102.408 54.5181C101.075 54.4115 99.7945 53.7715 98.5678 52.5981C97.3412 51.3715 96.7279 49.8515 96.7279 48.0381C96.7279 46.2781 97.2879 44.2248 98.4079 41.8781C99.5279 39.5315 101.021 37.0248 102.888 34.3581C104.755 31.6381 106.781 28.9448 108.968 26.2781C111.208 23.5581 113.448 20.9981 115.688 18.5981C117.981 16.1448 120.088 13.9848 122.008 12.1181C123.928 10.2515 125.475 8.81146 126.648 7.79813C126.435 8.01146 125.955 8.38479 125.208 8.91813C124.461 9.45146 123.715 10.0381 122.968 10.6781C123.181 10.4115 123.688 9.93146 124.488 9.23812C125.341 8.54479 126.035 7.98479 126.568 7.55812C123.688 7.55812 120.541 7.66479 117.128 7.87813C113.768 8.03812 110.488 8.49146 107.288 9.23812C106.755 9.34479 105.848 9.61146 104.568 10.0381C103.288 10.4648 101.821 11.0515 100.168 11.7981C98.5678 12.4915 96.9679 13.2915 95.3679 14.1981C93.7679 15.0515 92.3812 16.0115 91.2078 17.0781C90.0878 18.1448 89.3679 19.2381 89.0479 20.3581C89.2612 20.7848 89.3679 21.1848 89.3679 21.5581C89.3679 22.3048 89.0212 22.6781 88.3279 22.6781C87.6879 22.6781 86.9678 22.3048 86.1678 21.5581C85.4212 20.7581 85.0479 19.6915 85.0479 18.3581C85.0479 17.6648 85.1545 16.9981 85.3679 16.3581C85.9545 14.5981 86.9145 13.0781 88.2478 11.7981L88.0878 11.8781C87.8745 11.9848 87.7945 12.0115 87.8478 11.9581C87.9545 11.9048 88.1145 11.7981 88.3279 11.6381L88.2478 11.7981C90.6478 10.4648 93.2612 9.15813 96.0878 7.87813C98.9678 6.59813 102.195 5.53146 105.768 4.67812C109.341 3.82479 113.341 3.39813 117.768 3.39813C119.795 3.39813 121.928 3.50479 124.168 3.71812C126.408 3.93146 128.755 4.27812 131.208 4.75812C131.475 4.81146 131.821 4.86479 132.248 4.91813C132.728 4.97146 133.048 4.99813 133.208 4.99813H133.288C133.288 4.94479 132.675 4.78479 131.448 4.51813C131.288 4.51813 131.181 4.49146 131.128 4.43812C131.821 4.01146 132.381 3.71813 132.808 3.55812C133.235 3.39812 133.635 3.31812 134.008 3.31812C134.381 3.31812 135.021 3.37146 135.928 3.47813C136.888 3.58479 137.795 3.79812 138.648 4.11813C139.501 4.43813 139.955 4.91812 140.008 5.55812C142.568 5.77146 145.048 6.19812 147.448 6.83813C149.901 7.47813 151.715 8.14479 152.888 8.83812C153.848 9.37146 154.328 9.93146 154.328 10.5181C154.328 11.1581 153.821 11.3981 152.808 11.2381C151.848 11.0781 150.595 10.8915 149.048 10.6781C147.555 10.4648 145.955 10.2515 144.248 10.0381C142.595 9.82479 140.995 9.66479 139.448 9.55812C137.955 9.45146 136.728 9.45146 135.768 9.55812C133.635 11.1048 131.128 13.0248 128.248 15.3181C125.368 17.6115 122.408 20.1448 119.368 22.9181C116.381 25.6915 113.608 28.6248 111.048 31.7181C108.541 34.8115 106.515 37.9315 104.968 41.0781C103.421 44.2248 102.701 47.2915 102.808 50.2781C102.861 51.1315 103.208 51.8781 103.848 52.5181C104.488 53.1048 104.808 53.5581 104.808 53.8781C104.808 54.0915 104.621 54.2515 104.248 54.3581C103.928 54.4648 103.315 54.5181 102.408 54.5181ZM99.6879 5.71812C99.3679 5.77146 99.4212 5.74479 99.8478 5.63813C100.328 5.53146 100.861 5.39812 101.448 5.23813L103.288 4.67812C103.181 4.67812 103.235 4.67812 103.448 4.67812C103.715 4.62479 103.901 4.57146 104.008 4.51813C103.688 4.62479 103.475 4.67812 103.368 4.67812H103.288C103.501 4.62479 103.501 4.62479 103.288 4.67812C103.128 4.73146 102.888 4.81146 102.568 4.91813C102.248 4.97146 101.875 5.07813 101.448 5.23813L99.6879 5.71812ZM88.3279 11.6381C89.8212 10.2515 91.5812 9.07812 93.6078 8.11812C95.6345 7.15812 97.6612 6.35812 99.6879 5.71812C97.7679 6.35812 95.9278 7.15812 94.1678 8.11812C92.4612 9.02479 90.8345 10.0115 89.2878 11.0781L88.3279 11.6381Z" fill="black"/>
<path d="M69.4576 57.7989C69.4576 57.5322 69.6442 57.1589 70.0176 56.6789C70.3909 56.2522 70.8709 55.7189 71.4576 55.0789C72.7909 53.5856 73.8576 52.3322 74.6576 51.3189C75.4576 50.2522 75.9376 49.5856 76.0976 49.3189C75.5109 49.9589 74.8176 50.7856 74.0176 51.7989C73.2709 52.7589 72.3909 53.7456 71.3776 54.7589C72.0176 54.0122 72.6309 53.2122 73.2176 52.3589C73.8042 51.5056 74.2842 50.7856 74.6576 50.1989C75.0309 49.6122 75.1909 49.3189 75.1376 49.3189L62.6576 50.1189C62.5509 50.2256 62.4976 50.3056 62.4976 50.3589C62.7109 50.3589 63.0576 50.3589 63.5376 50.3589C64.0176 50.3056 64.4176 50.2789 64.7376 50.2789C65.1109 50.2256 65.1376 50.2256 64.8176 50.2789L62.3376 50.5189C61.4309 51.7456 59.7776 52.8122 57.3776 53.7189C56.5242 53.5589 55.8576 53.2389 55.3776 52.7589C54.9509 52.2256 54.6309 51.6389 54.4176 50.9989C54.2042 50.9989 53.9909 51.0256 53.7776 51.0789C53.6176 51.0789 53.4576 51.0789 53.2976 51.0789C52.7109 51.0789 51.7509 51.1589 50.4176 51.3189C49.1376 51.4789 47.8576 51.6389 46.5776 51.7989C45.2976 51.9056 44.4442 51.9856 44.0176 52.0389C43.9109 52.0389 43.8309 52.0656 43.7776 52.1189C43.6709 52.1189 43.5642 52.1189 43.4576 52.1189C42.8176 52.1189 42.4976 51.9322 42.4976 51.5589C42.4976 51.1856 42.8976 50.7589 43.6976 50.2789C44.4442 49.7456 45.3242 49.3989 46.3376 49.2389C46.7642 49.1322 47.7242 49.0256 49.2176 48.9189C50.7642 48.7589 52.4442 48.5722 54.2576 48.3589C54.2576 47.9856 54.2842 47.6389 54.3376 47.3189C54.4442 46.9989 54.5242 46.7322 54.5776 46.5189C54.9509 45.2922 55.8309 43.5322 57.2176 41.2389C58.6576 38.8922 60.3642 36.2789 62.3376 33.3989C64.3642 30.5189 66.4442 27.6122 68.5776 24.6789C70.7109 21.7456 72.7376 19.0256 74.6576 16.5189C76.5776 13.9589 78.1242 11.8789 79.2976 10.2789L66.0976 11.7189C65.7242 11.9322 65.3776 12.0389 65.0576 12.0389C64.6842 12.0389 64.3909 11.8522 64.1776 11.4789C63.9642 11.0522 63.8576 10.5722 63.8576 10.0389C63.8576 9.45224 63.9376 8.83891 64.0976 8.19891C64.3109 7.50558 64.5509 6.86557 64.8176 6.27891H64.9776C64.9776 5.37224 65.4309 4.91891 66.3376 4.91891C66.7642 4.91891 67.2176 4.97224 67.6976 5.07891C68.2309 5.18558 68.7642 5.23891 69.2976 5.23891C70.2042 5.18557 71.1642 5.07891 72.1776 4.91891C73.1909 4.70558 73.7776 4.43891 73.9376 4.11891C74.1509 3.79891 74.3109 3.63891 74.4176 3.63891C74.5776 3.63891 74.7376 3.90557 74.8976 4.43891C74.9509 4.54557 74.9776 4.70558 74.9776 4.91891C74.9776 5.29224 74.8442 5.69224 74.5776 6.11891L80.8976 5.87891C80.9509 5.71891 80.9776 5.55891 80.9776 5.39891C80.9242 5.23891 80.8709 5.07891 80.8176 4.91891C80.7642 4.70558 80.7376 4.51891 80.7376 4.35891C80.7376 3.93224 80.9776 3.71891 81.4576 3.71891C81.5642 3.71891 81.8309 3.77224 82.2576 3.87891C82.6842 4.03891 83.2176 4.27891 83.8576 4.59891C84.4976 4.86558 85.1376 5.21224 85.7776 5.63891H87.1376L88.3376 5.55891C91.6976 5.34558 94.2842 5.05224 96.0976 4.67891C97.9109 4.30558 99.1909 3.93224 99.9376 3.55891C100.738 3.18558 101.218 2.86558 101.378 2.59891C101.538 2.27891 101.671 2.09224 101.778 2.03891C101.991 1.93224 102.124 1.87891 102.178 1.87891C102.338 1.87891 102.418 1.95891 102.418 2.11891C102.418 2.43891 102.231 2.78557 101.858 3.15891C101.698 3.37224 101.778 3.61224 102.098 3.87891C102.418 4.14557 102.764 4.43891 103.138 4.75891C103.564 5.02557 103.778 5.31891 103.778 5.63891C103.778 5.95891 103.431 6.30558 102.738 6.67891C102.098 6.99891 100.924 7.34558 99.2176 7.71891C97.5109 8.03891 95.0309 8.41224 91.7776 8.83891C91.7242 8.83891 91.3242 9.18557 90.5776 9.87891C89.8842 10.5189 89.0309 11.3456 88.0176 12.3589C87.0576 13.3722 86.0709 14.3856 85.0576 15.3989C84.0976 16.3589 83.2709 17.1856 82.5776 17.8789C81.8842 18.5722 81.4842 18.9189 81.3776 18.9189C81.3242 18.9189 81.5642 18.5989 82.0976 17.9589C82.6842 17.2656 83.4042 16.4389 84.2576 15.4789C85.1109 14.4656 85.9642 13.4789 86.8176 12.5189C87.7242 11.5056 88.4442 10.6789 88.9776 10.0389C89.5642 9.39891 89.8309 9.07891 89.7776 9.07891L88.5776 9.15891C88.5776 9.42557 88.5509 9.63891 88.4976 9.79891C87.8576 10.4922 86.8442 11.6389 85.4576 13.2389C84.1242 14.7856 82.5509 16.6256 80.7376 18.7589C78.9242 20.8922 77.0309 23.1589 75.0576 25.5589C73.0842 27.9056 71.1376 30.2256 69.2176 32.5189C67.3509 34.8122 65.6442 36.9189 64.0976 38.8389C62.6042 40.7056 61.4042 42.2256 60.4976 43.3989C60.0709 43.9322 59.7242 44.5189 59.4576 45.1589C59.2442 45.7456 59.1109 46.0922 59.0576 46.1989C60.5509 46.4122 61.6176 46.8389 62.2576 47.4789L63.1376 47.3989C65.0576 47.2389 67.4042 46.8122 70.1776 46.1189C72.9509 45.4256 75.8042 45.0789 78.7376 45.0789H78.8176C79.0842 45.0789 79.3509 45.1856 79.6176 45.3989C79.9376 45.6122 80.1509 45.7189 80.2576 45.7189C80.6842 45.7189 81.0309 46.0122 81.2976 46.5989C81.5642 47.1856 81.6976 47.6122 81.6976 47.8789C81.6976 48.0922 81.2976 48.5722 80.4976 49.3189C79.7509 50.0122 78.7909 50.8389 77.6176 51.7989C76.4442 52.7589 75.2442 53.6922 74.0176 54.5989C72.8442 55.5056 71.8042 56.2522 70.8976 56.8389C70.0442 57.4789 69.5642 57.7989 69.4576 57.7989Z" fill="black"/>
<path d="M12.4995 76.0391C11.8062 75.8257 11.0328 75.4791 10.1795 74.9991C9.32618 74.5724 8.89951 73.9324 8.89951 73.0791C8.89951 72.7591 8.97951 72.4391 9.13951 72.1191L9.29951 71.7991C8.49951 70.9457 7.83285 70.0124 7.29951 68.9991C6.76618 68.0391 6.49951 67.1324 6.49951 66.2791C6.49951 65.9057 6.52618 65.6391 6.57951 65.4791C8.01951 63.3457 10.0728 61.1324 12.7395 58.8391C15.4062 56.5457 18.4995 54.3591 22.0195 52.2791C25.5928 50.1991 29.3528 48.4391 33.2995 46.9991C34.1528 45.8791 34.9262 44.7857 35.6195 43.7191C36.3128 42.6524 37.0062 41.6124 37.6995 40.5991C37.6462 40.5991 37.7528 40.4124 38.0195 40.0391C38.2862 39.6124 38.5528 39.1857 38.8195 38.7591C39.0862 38.3324 39.1928 38.1457 39.1395 38.1991C39.0862 38.1991 38.8728 38.4657 38.4995 38.9991C38.1795 39.4791 37.8328 39.9591 37.4595 40.4391C37.1395 40.9191 36.9528 41.1857 36.8995 41.2391C34.1262 43.4791 31.1128 45.5591 27.8595 47.4791C24.6595 49.3457 21.5928 50.6791 18.6595 51.4791C17.1662 51.8524 15.6728 52.1191 14.1795 52.2791C12.6862 52.4391 11.3262 52.5191 10.0995 52.5191C9.08618 52.5191 8.25951 52.4924 7.61951 52.4391C6.97951 52.3324 6.65951 52.2524 6.65951 52.1991C6.65951 51.9857 7.83284 51.8791 10.1795 51.8791C6.65951 51.1324 4.15285 49.8524 2.65951 48.0391C1.21951 46.1724 0.499512 44.0124 0.499512 41.5591C0.499512 39.5324 0.899512 37.3991 1.69951 35.1591C2.55285 32.8657 3.64618 30.6524 4.97951 28.5191C7.80618 23.9857 10.8462 20.3591 14.0995 17.6391C17.4062 14.9191 21.0595 12.4391 25.0595 10.1991C24.0462 10.6791 23.0062 11.1857 21.9395 11.7191C20.9262 12.1991 19.9662 12.7057 19.0595 13.2391C18.6862 13.4524 18.3662 13.5591 18.0995 13.5591C17.8862 13.5591 17.9662 13.4524 18.3395 13.2391C20.0995 12.2257 22.1795 11.1591 24.5795 10.0391C26.9795 8.86573 29.0862 7.8524 30.8995 6.99906C35.4862 4.8124 40.1262 3.10573 44.8195 1.87906C49.5128 0.652396 53.6195 0.0390625 57.1395 0.0390625C59.2195 0.0390625 60.9795 0.279062 62.4195 0.759062C63.0595 1.7724 63.5128 2.70573 63.7795 3.55906C64.0462 4.35906 64.1795 5.07906 64.1795 5.71906C64.1795 6.2524 64.0995 6.70573 63.9395 7.07907C63.8328 7.4524 63.7262 7.7724 63.6195 8.03906C63.8862 7.87907 64.1262 7.6124 64.3395 7.23907C64.6062 6.86573 64.8195 6.4924 64.9795 6.11907C65.1395 5.74573 65.2195 5.42573 65.2195 5.15906C65.2729 4.8924 65.3528 4.62573 65.4595 4.35906C65.5662 4.19907 65.8595 4.30573 66.3395 4.67906C66.8195 5.0524 67.2728 5.5324 67.6995 6.11907C68.1795 6.70573 68.3928 7.23906 68.3395 7.71906C68.2862 8.62573 67.8328 9.71906 66.9795 10.9991C66.1795 12.2791 65.1662 13.5324 63.9395 14.7591C62.7662 15.9324 61.5662 16.9191 60.3395 17.7191C59.1129 18.4657 58.0462 18.7857 57.1395 18.6791C55.8062 19.0524 54.6062 19.3724 53.5395 19.6391C52.5262 19.8524 51.7795 19.9591 51.2995 19.9591C50.8729 19.9591 50.6595 19.8524 50.6595 19.6391C50.6595 19.3191 51.4062 18.6257 52.8995 17.5591C55.1395 16.0657 57.0595 14.5457 58.6595 12.9991C60.6329 11.0791 61.6195 9.58573 61.6195 8.51906C61.6195 7.82573 61.2995 7.31907 60.6595 6.99906C60.0728 6.67906 59.2462 6.51906 58.1795 6.51906C57.9662 6.51906 57.6995 6.54573 57.3795 6.59906C57.1129 6.59906 56.8195 6.62573 56.4995 6.67906C53.4062 7.10573 50.0728 7.79907 46.4995 8.75907C42.9795 9.71907 39.3795 10.9991 35.6995 12.5991C32.0195 14.1457 28.4728 16.0391 25.0595 18.2791C21.6995 20.4657 18.6328 23.0257 15.8595 25.9591C13.0862 28.8391 10.8195 32.1457 9.05951 35.8791C8.36618 37.3191 7.83285 38.7057 7.45951 40.0391C7.08618 41.3724 6.89951 42.5724 6.89951 43.6391C6.89951 45.1324 7.29951 46.3324 8.09951 47.2391C8.95285 48.0924 10.3128 48.5191 12.1795 48.5191C13.6195 48.5191 15.3795 48.2524 17.4595 47.7191C19.5928 47.1324 22.0995 46.1724 24.9795 44.8391C27.1128 43.8791 29.2728 42.5724 31.4595 40.9191C33.6462 39.2657 35.6995 37.5324 37.6195 35.7191C39.5395 33.9057 41.1928 32.2524 42.5795 30.7591C44.0195 29.2124 45.0062 28.0924 45.5395 27.3991C46.1262 27.2391 46.8995 27.3457 47.8595 27.7191C48.8728 28.0924 49.7528 28.5457 50.4995 29.0791C51.2995 29.6124 51.6195 30.0391 51.4595 30.3591C51.4595 30.3591 51.0328 31.0791 50.1795 32.5191C49.3795 33.9591 48.2062 35.9057 46.6595 38.3591C45.1662 40.7591 43.3795 43.3991 41.2995 46.2791L43.3795 46.1191H43.6195C44.3662 46.1191 44.7395 46.3591 44.7395 46.8391C44.7395 47.2657 44.3928 47.5591 43.6995 47.7191C43.0595 47.9324 42.3395 48.1991 41.5395 48.5191C40.7395 48.7857 39.9395 49.0524 39.1395 49.3191L38.2595 50.3591L38.6595 49.7991L38.7395 49.6391L33.2195 55.9591C32.4195 56.8657 31.4062 57.9591 30.1795 59.2391C28.9528 60.5191 27.6462 61.8257 26.2595 63.1591C24.9262 64.4924 23.6728 65.7191 22.4995 66.8391C21.3262 67.9591 20.3928 68.8657 19.6995 69.5591C19.0062 70.2524 18.7128 70.5724 18.8195 70.5191C21.6462 68.3857 24.3662 65.9857 26.9795 63.3191C29.5928 60.7057 32.1795 57.7991 34.7395 54.5991C35.1128 54.0657 35.5662 53.5057 36.0995 52.9191C36.6328 52.3324 37.1395 51.7457 37.6195 51.1591C37.0328 52.0124 36.2862 53.0524 35.3795 54.2791C34.4728 55.5057 33.4062 56.8657 32.1795 58.3591C31.4328 59.2657 30.4195 60.3324 29.1395 61.5591C27.8595 62.7857 26.4995 64.0124 25.0595 65.2391C23.6728 66.5191 22.3928 67.6391 21.2195 68.5991C20.0995 69.5591 19.2995 70.1991 18.8195 70.5191C19.1928 70.5191 19.4862 70.5991 19.6995 70.7591C19.9128 70.8657 19.7262 71.2124 19.1395 71.7991C18.5528 72.3857 17.7795 73.0257 16.8195 73.7191C15.9128 74.4124 15.0328 74.9991 14.1795 75.4791C13.3795 75.9591 12.8195 76.1457 12.4995 76.0391ZM25.9395 10.0391C29.4062 8.43907 33.0862 6.99906 36.9795 5.71906C40.9262 4.43907 44.7129 3.4524 48.3395 2.75907C51.9662 2.0124 55.0328 1.63907 57.5395 1.63907C58.2862 1.63907 58.6595 1.58573 58.6595 1.47906C58.6595 1.3724 58.4728 1.2924 58.0995 1.23907C57.7795 1.1324 57.4328 1.10573 57.0595 1.15907C55.5128 1.26573 53.4062 1.50573 50.7395 1.87906C48.1262 2.19906 45.2462 2.7324 42.0995 3.47907C38.9529 4.22573 35.8062 5.2924 32.6595 6.67906C31.6462 7.15906 30.5262 7.6924 29.2995 8.27907C28.0728 8.86573 26.9528 9.4524 25.9395 10.0391ZM12.5795 72.5191C14.0195 71.0791 15.6995 69.2924 17.6195 67.1591C19.5395 65.0791 21.4862 62.9191 23.4595 60.6791C25.4328 58.4391 27.1928 56.4391 28.7395 54.6791C29.4328 53.9324 30.1262 53.1591 30.8195 52.3591C31.5662 51.5591 32.2062 50.7324 32.7395 49.8791C31.7795 51.0524 31.1395 51.7724 30.8195 52.0391C30.4995 52.2524 30.3128 52.3591 30.2595 52.3591C29.3528 52.7324 28.1262 53.4257 26.5795 54.4391C25.0862 55.4524 23.4862 56.6524 21.7795 58.0391C20.0728 59.4791 18.4728 60.9724 16.9795 62.5191C15.4862 64.1191 14.2595 65.6391 13.2995 67.0791C12.3395 68.5191 11.8595 69.7724 11.8595 70.8391C11.8595 71.4791 12.0995 72.0391 12.5795 72.5191Z" fill="black"/>
</svg>
