<svg width="90" height="90" viewBox="0 0 90 90" fill="none" xmlns="http://www.w3.org/2000/svg">
<g clip-path="url(#clip0_21_8291)">
<circle cx="45" cy="45" r="45" fill="#111112"/>
<path d="M32.4 70.4C31.9667 70.2667 31.4833 70.05 30.95 69.75C30.4167 69.4833 30.15 69.0833 30.15 68.55C30.15 68.35 30.2 68.15 30.3 67.95L30.4 67.75C29.9 67.2167 29.4833 66.6333 29.15 66C28.8167 65.4 28.65 64.8333 28.65 64.3C28.65 64.0667 28.6667 63.9 28.7 63.8C29.6 62.4667 30.8833 61.0833 32.55 59.65C34.2167 58.2167 36.15 56.85 38.35 55.55C40.5833 54.25 42.9333 53.15 45.4 52.25C45.9333 51.55 46.4167 50.8667 46.85 50.2C47.2833 49.5333 47.7167 48.8833 48.15 48.25C48.1167 48.25 48.1833 48.1333 48.35 47.9C48.5167 47.6333 48.6833 47.3667 48.85 47.1C49.0167 46.8333 49.0833 46.7167 49.05 46.75C49.0167 46.75 48.8833 46.9167 48.65 47.25C48.45 47.55 48.2333 47.85 48 48.15C47.8 48.45 47.6833 48.6167 47.65 48.65C45.9167 50.05 44.0333 51.35 42 52.55C40 53.7167 38.0833 54.55 36.25 55.05C35.3167 55.2833 34.3833 55.45 33.45 55.55C32.5167 55.65 31.6667 55.7 30.9 55.7C30.2667 55.7 29.75 55.6833 29.35 55.65C28.95 55.5833 28.75 55.5333 28.75 55.5C28.75 55.3667 29.4833 55.3 30.95 55.3C28.75 54.8333 27.1833 54.0333 26.25 52.9C25.35 51.7333 24.9 50.3833 24.9 48.85C24.9 47.5833 25.15 46.25 25.65 44.85C26.1833 43.4167 26.8667 42.0333 27.7 40.7C29.4667 37.8667 31.3667 35.6 33.4 33.9C35.4667 32.2 37.75 30.65 40.25 29.25C39.6167 29.55 38.9667 29.8667 38.3 30.2C37.6667 30.5 37.0667 30.8167 36.5 31.15C36.2667 31.2833 36.0667 31.35 35.9 31.35C35.7667 31.35 35.8167 31.2833 36.05 31.15C37.15 30.5167 38.45 29.85 39.95 29.15C41.45 28.4167 42.7667 27.7833 43.9 27.25C46.7667 25.8833 49.6667 24.8167 52.6 24.05C55.5333 23.2833 58.1 22.9 60.3 22.9C61.6 22.9 62.7 23.05 63.6 23.35C64 23.9833 64.2833 24.5667 64.45 25.1C64.6167 25.6 64.7 26.05 64.7 26.45C64.7 26.7833 64.65 27.0667 64.55 27.3C64.4833 27.5333 64.4167 27.7333 64.35 27.9C64.5167 27.8 64.6667 27.6333 64.8 27.4C64.9667 27.1667 65.1 26.9333 65.2 26.7C65.3 26.4667 65.35 26.2667 65.35 26.1C65.3833 25.9333 65.4333 25.7667 65.5 25.6C65.5667 25.5 65.75 25.5667 66.05 25.8C66.35 26.0333 66.6333 26.3333 66.9 26.7C67.2 27.0667 67.3333 27.4 67.3 27.7C67.2667 28.2667 66.9833 28.95 66.45 29.75C65.95 30.55 65.3167 31.3333 64.55 32.1C63.8167 32.8333 63.0667 33.45 62.3 33.95C61.5333 34.4167 60.8667 34.6167 60.3 34.55C59.4667 34.7833 58.7167 34.9833 58.05 35.15C57.4167 35.2833 56.95 35.35 56.65 35.35C56.3833 35.35 56.25 35.2833 56.25 35.15C56.25 34.95 56.7167 34.5167 57.65 33.85C59.05 32.9167 60.25 31.9667 61.25 31C62.4833 29.8 63.1 28.8667 63.1 28.2C63.1 27.7667 62.9 27.45 62.5 27.25C62.1333 27.05 61.6167 26.95 60.95 26.95C60.8167 26.95 60.65 26.9667 60.45 27C60.2833 27 60.1 27.0167 59.9 27.05C57.9667 27.3167 55.8833 27.75 53.65 28.35C51.45 28.95 49.2 29.75 46.9 30.75C44.6 31.7167 42.3833 32.9 40.25 34.3C38.15 35.6667 36.2333 37.2667 34.5 39.1C32.7667 40.9 31.35 42.9667 30.25 45.3C29.8167 46.2 29.4833 47.0667 29.25 47.9C29.0167 48.7333 28.9 49.4833 28.9 50.15C28.9 51.0833 29.15 51.8333 29.65 52.4C30.1833 52.9333 31.0333 53.2 32.2 53.2C33.1 53.2 34.2 53.0333 35.5 52.7C36.8333 52.3333 38.4 51.7333 40.2 50.9C41.5333 50.3 42.8833 49.4833 44.25 48.45C45.6167 47.4167 46.9 46.3333 48.1 45.2C49.3 44.0667 50.3333 43.0333 51.2 42.1C52.1 41.1333 52.7167 40.4333 53.05 40C53.4167 39.9 53.9 39.9667 54.5 40.2C55.1333 40.4333 55.6833 40.7167 56.15 41.05C56.65 41.3833 56.85 41.65 56.75 41.85C56.75 41.85 56.4833 42.3 55.95 43.2C55.45 44.1 54.7167 45.3167 53.75 46.85C52.8167 48.35 51.7 50 50.4 51.8L51.7 51.7H51.85C52.3167 51.7 52.55 51.85 52.55 52.15C52.55 52.4167 52.3333 52.6 51.9 52.7C51.5 52.8333 51.05 53 50.55 53.2C50.05 53.3667 49.55 53.5333 49.05 53.7L48.5 54.35L48.75 54L48.8 53.9L45.35 57.85C44.85 58.4167 44.2167 59.1 43.45 59.9C42.6833 60.7 41.8667 61.5167 41 62.35C40.1667 63.1833 39.3833 63.95 38.65 64.65C37.9167 65.35 37.3333 65.9167 36.9 66.35C36.4667 66.7833 36.2833 66.9833 36.35 66.95C38.1167 65.6167 39.8167 64.1167 41.45 62.45C43.0833 60.8167 44.7 59 46.3 57C46.5333 56.6667 46.8167 56.3167 47.15 55.95C47.4833 55.5833 47.8 55.2167 48.1 54.85C47.7333 55.3833 47.2667 56.0333 46.7 56.8C46.1333 57.5667 45.4667 58.4167 44.7 59.35C44.2333 59.9167 43.6 60.5833 42.8 61.35C42 62.1167 41.15 62.8833 40.25 63.65C39.3833 64.45 38.5833 65.15 37.85 65.75C37.15 66.35 36.65 66.75 36.35 66.95C36.5833 66.95 36.7667 67 36.9 67.1C37.0333 67.1667 36.9167 67.3833 36.55 67.75C36.1833 68.1167 35.7 68.5167 35.1 68.95C34.5333 69.3833 33.9833 69.75 33.45 70.05C32.95 70.35 32.6 70.4667 32.4 70.4ZM40.8 29.15C42.9667 28.15 45.2667 27.25 47.7 26.45C50.1667 25.65 52.5333 25.0333 54.8 24.6C57.0667 24.1333 58.9833 23.9 60.55 23.9C61.0167 23.9 61.25 23.8667 61.25 23.8C61.25 23.7333 61.1333 23.6833 60.9 23.65C60.7 23.5833 60.4833 23.5667 60.25 23.6C59.2833 23.6667 57.9667 23.8167 56.3 24.05C54.6667 24.25 52.8667 24.5833 50.9 25.05C48.9333 25.5167 46.9667 26.1833 45 27.05C44.3667 27.35 43.6667 27.6833 42.9 28.05C42.1333 28.4167 41.4333 28.7833 40.8 29.15ZM32.45 68.2C33.35 67.3 34.4 66.1833 35.6 64.85C36.8 63.55 38.0167 62.2 39.25 60.8C40.4833 59.4 41.5833 58.15 42.55 57.05C42.9833 56.5833 43.4167 56.1 43.85 55.6C44.3167 55.1 44.7167 54.5833 45.05 54.05C44.45 54.7833 44.05 55.2333 43.85 55.4C43.65 55.5333 43.5333 55.6 43.5 55.6C42.9333 55.8333 42.1667 56.2667 41.2 56.9C40.2667 57.5333 39.2667 58.2833 38.2 59.15C37.1333 60.05 36.1333 60.9833 35.2 61.95C34.2667 62.95 33.5 63.9 32.9 64.8C32.3 65.7 32 66.4833 32 67.15C32 67.55 32.15 67.9 32.45 68.2Z" fill="white"/>
</g>
<defs>
<clipPath id="clip0_21_8291">
<rect width="90" height="90" fill="white"/>
</clipPath>
</defs>
</svg>
